<svg width="24" height="24" viewBox="0 0 24 24" fill="none" xmlns="http://www.w3.org/2000/svg">
<g clip-path="url(#clip0_2504_4)">
<path d="M6.76381 10.177L16.2272 0.693881C16.5835 0.33691 17.1616 0.336362 17.5185 0.692557C17.8755 1.04875 17.8761 1.62687 17.5199 1.98384L8.05578 11.4677C7.69977 11.8237 7.69977 12.4029 8.05646 12.7596L17.5199 22.2428C17.8761 22.5997 17.8755 23.1778 17.5185 23.534C17.3403 23.7119 17.1069 23.8008 16.8735 23.8008C16.6396 23.8008 16.4056 23.7114 16.2272 23.5327L6.76449 14.0502C5.69646 12.9822 5.69646 11.2444 6.76381 10.177Z" fill="#869EA9"/>
</g>
<defs>
<clipPath id="clip0_2504_4">
<rect width="23.375" height="23.375" fill="white" transform="matrix(-1 0 0 1 23.5625 0.425781)"/>
</clipPath>
</defs>
</svg>
